<?xml version="1.0" encoding="UTF-8" standalone="no"?>
<!DOCTYPE svg PUBLIC "-//W3C//DTD SVG 1.1//EN"
 "http://www.w3.org/Graphics/SVG/1.1/DTD/svg11.dtd">
<!-- Generated by graphviz version 3.0.0 (20220226.1711)
 -->
<!-- Pages: 1 -->
<svg width="627pt" height="206pt"
 viewBox="0.00 0.00 626.57 206.49" xmlns="http://www.w3.org/2000/svg" xmlns:xlink="http://www.w3.org/1999/xlink">
<g id="graph0" class="graph" transform="scale(1 1) rotate(0) translate(4 202.49)">
<polygon fill="white" stroke="transparent" points="-4,4 -4,-202.49 622.57,-202.49 622.57,4 -4,4"/>
<text text-anchor="middle" x="309.28" y="-7.8" font-family="Times New Roman,serif" font-size="14.00">cross&#45;product</text>
<!-- null -->
<g id="node1" class="node">
<title>null</title>
<ellipse fill="black" stroke="black" cx="1.8" cy="-116.25" rx="1.8" ry="1.8"/>
</g>
<!-- q1p1 -->
<g id="node3" class="node">
<title>q1p1</title>
<ellipse fill="none" stroke="black" cx="69.85" cy="-116.25" rx="29.5" ry="29.5"/>
<text text-anchor="middle" x="69.85" y="-112.55" font-family="Times New Roman,serif" font-size="14.00">q1p1</text>
</g>
<!-- null&#45;&gt;q1p1 -->
<g id="edge1" class="edge">
<title>null&#45;&gt;q1p1</title>
<path fill="none" stroke="black" d="M3.95,-116.25C7.43,-116.25 18.36,-116.25 30.29,-116.25"/>
<polygon fill="black" stroke="black" points="30.39,-119.75 40.39,-116.25 30.39,-112.75 30.39,-119.75"/>
</g>
<!-- q4p2 -->
<g id="node2" class="node">
<title>q4p2</title>
<ellipse fill="none" stroke="black" cx="482.83" cy="-56.25" rx="29.47" ry="29.47"/>
<ellipse fill="none" stroke="black" cx="482.83" cy="-56.25" rx="33.5" ry="33.5"/>
<text text-anchor="middle" x="482.83" y="-52.55" font-family="Times New Roman,serif" font-size="14.00">q4p2</text>
</g>
<!-- q4p2&#45;&gt;q4p2 -->
<g id="edge9" class="edge">
<title>q4p2&#45;&gt;q4p2</title>
<path fill="none" stroke="black" d="M472.7,-88.03C472.65,-98.82 476.02,-107.49 482.83,-107.49 487.29,-107.49 490.28,-103.76 491.79,-98.14"/>
<polygon fill="black" stroke="black" points="495.29,-98.36 492.95,-88.03 488.33,-97.56 495.29,-98.36"/>
<text text-anchor="middle" x="482.83" y="-111.29" font-family="Times New Roman,serif" font-size="14.00">a</text>
</g>
<!-- q4p1 -->
<g id="node9" class="node">
<title>q4p1</title>
<ellipse fill="none" stroke="black" cx="589.32" cy="-94.25" rx="29.5" ry="29.5"/>
<text text-anchor="middle" x="589.32" y="-90.55" font-family="Times New Roman,serif" font-size="14.00">q4p1</text>
</g>
<!-- q4p2&#45;&gt;q4p1 -->
<g id="edge17" class="edge">
<title>q4p2&#45;&gt;q4p1</title>
<path fill="none" stroke="black" d="M515.94,-52.37C524.63,-52.35 533.89,-53.32 542.07,-56.25 548.65,-58.6 554.96,-62.34 560.69,-66.57"/>
<polygon fill="black" stroke="black" points="558.66,-69.43 568.63,-73.02 563.07,-64 558.66,-69.43"/>
<text text-anchor="middle" x="538.07" y="-60.05" font-family="Times New Roman,serif" font-size="14.00">b</text>
</g>
<!-- q2p1 -->
<g id="node4" class="node">
<title>q2p1</title>
<ellipse fill="none" stroke="black" cx="172.34" cy="-154.25" rx="29.5" ry="29.5"/>
<text text-anchor="middle" x="172.34" y="-150.55" font-family="Times New Roman,serif" font-size="14.00">q2p1</text>
</g>
<!-- q1p1&#45;&gt;q2p1 -->
<g id="edge2" class="edge">
<title>q1p1&#45;&gt;q2p1</title>
<path fill="none" stroke="black" d="M97.51,-126.33C108.99,-130.67 122.58,-135.81 134.95,-140.49"/>
<polygon fill="black" stroke="black" points="133.96,-143.85 144.55,-144.12 136.43,-137.31 133.96,-143.85"/>
<text text-anchor="middle" x="121.09" y="-140.05" font-family="Times New Roman,serif" font-size="14.00">a</text>
</g>
<!-- q1p2 -->
<g id="node5" class="node">
<title>q1p2</title>
<ellipse fill="none" stroke="black" cx="172.34" cy="-78.25" rx="29.5" ry="29.5"/>
<text text-anchor="middle" x="172.34" y="-74.55" font-family="Times New Roman,serif" font-size="14.00">q1p2</text>
</g>
<!-- q1p1&#45;&gt;q1p2 -->
<g id="edge10" class="edge">
<title>q1p1&#45;&gt;q1p2</title>
<path fill="none" stroke="black" d="M97.51,-106.16C108.99,-101.83 122.58,-96.69 134.95,-92.01"/>
<polygon fill="black" stroke="black" points="136.43,-95.19 144.55,-88.38 133.96,-88.64 136.43,-95.19"/>
<text text-anchor="middle" x="121.09" y="-103.05" font-family="Times New Roman,serif" font-size="14.00">b</text>
</g>
<!-- q2p2 -->
<g id="node6" class="node">
<title>q2p2</title>
<ellipse fill="none" stroke="black" cx="274.84" cy="-116.25" rx="29.5" ry="29.5"/>
<text text-anchor="middle" x="274.84" y="-112.55" font-family="Times New Roman,serif" font-size="14.00">q2p2</text>
</g>
<!-- q2p1&#45;&gt;q2p2 -->
<g id="edge12" class="edge">
<title>q2p1&#45;&gt;q2p2</title>
<path fill="none" stroke="black" d="M200.01,-144.16C211.48,-139.83 225.07,-134.69 237.45,-130.01"/>
<polygon fill="black" stroke="black" points="238.93,-133.19 247.05,-126.38 236.45,-126.64 238.93,-133.19"/>
<text text-anchor="middle" x="223.59" y="-140.05" font-family="Times New Roman,serif" font-size="14.00">b</text>
</g>
<!-- q3p1 -->
<g id="node7" class="node">
<title>q3p1</title>
<ellipse fill="none" stroke="black" cx="482.83" cy="-169.25" rx="29.5" ry="29.5"/>
<text text-anchor="middle" x="482.83" y="-165.55" font-family="Times New Roman,serif" font-size="14.00">q3p1</text>
</g>
<!-- q2p1&#45;&gt;q3p1 -->
<g id="edge4" class="edge">
<title>q2p1&#45;&gt;q3p1</title>
<path fill="none" stroke="black" d="M201.81,-155.63C257.36,-158.33 380.27,-164.31 443.14,-167.37"/>
<polygon fill="black" stroke="black" points="443.27,-170.88 453.43,-167.87 443.61,-163.88 443.27,-170.88"/>
<text text-anchor="middle" x="325.58" y="-165.05" font-family="Times New Roman,serif" font-size="14.00">a</text>
</g>
<!-- q1p2&#45;&gt;q1p1 -->
<g id="edge11" class="edge">
<title>q1p2&#45;&gt;q1p1</title>
<path fill="none" stroke="black" d="M143.38,-73.89C134.73,-73.55 125.32,-74.24 117.09,-77.25 110.18,-79.77 103.58,-83.84 97.64,-88.42"/>
<polygon fill="black" stroke="black" points="95.38,-85.75 90,-94.88 99.89,-91.1 95.38,-85.75"/>
<text text-anchor="middle" x="121.09" y="-81.05" font-family="Times New Roman,serif" font-size="14.00">b</text>
</g>
<!-- q1p2&#45;&gt;q2p2 -->
<g id="edge3" class="edge">
<title>q1p2&#45;&gt;q2p2</title>
<path fill="none" stroke="black" d="M201.57,-75.33C210.14,-75.35 219.44,-76.3 227.59,-79.25 234.09,-81.59 240.36,-85.26 246.08,-89.39"/>
<polygon fill="black" stroke="black" points="244.01,-92.21 254.02,-95.67 248.35,-86.72 244.01,-92.21"/>
<text text-anchor="middle" x="223.59" y="-83.05" font-family="Times New Roman,serif" font-size="14.00">a</text>
</g>
<!-- q2p2&#45;&gt;q2p1 -->
<g id="edge13" class="edge">
<title>q2p2&#45;&gt;q2p1</title>
<path fill="none" stroke="black" d="M245.86,-111.13C237.21,-110.62 227.8,-111.19 219.59,-114.25 212.61,-116.85 205.99,-121.02 200.05,-125.72"/>
<polygon fill="black" stroke="black" points="197.67,-123.15 192.4,-132.34 202.25,-128.44 197.67,-123.15"/>
<text text-anchor="middle" x="223.59" y="-118.05" font-family="Times New Roman,serif" font-size="14.00">b</text>
</g>
<!-- q3p2 -->
<g id="node8" class="node">
<title>q3p2</title>
<ellipse fill="none" stroke="black" cx="376.33" cy="-116.25" rx="29.5" ry="29.5"/>
<text text-anchor="middle" x="376.33" y="-112.55" font-family="Times New Roman,serif" font-size="14.00">q3p2</text>
</g>
<!-- q2p2&#45;&gt;q3p2 -->
<g id="edge5" class="edge">
<title>q2p2&#45;&gt;q3p2</title>
<path fill="none" stroke="black" d="M304.35,-116.25C314.44,-116.25 325.98,-116.25 336.77,-116.25"/>
<polygon fill="black" stroke="black" points="336.82,-119.75 346.82,-116.25 336.82,-112.75 336.82,-119.75"/>
<text text-anchor="middle" x="325.58" y="-120.05" font-family="Times New Roman,serif" font-size="14.00">a</text>
</g>
<!-- q3p1&#45;&gt;q3p2 -->
<g id="edge14" class="edge">
<title>q3p1&#45;&gt;q3p2</title>
<path fill="none" stroke="black" d="M463.48,-147.08C452.5,-134.48 439.23,-120.58 431.58,-117.25 426.68,-115.12 421.3,-113.88 415.88,-113.25"/>
<polygon fill="black" stroke="black" points="415.71,-109.73 405.53,-112.7 415.33,-116.72 415.71,-109.73"/>
<text text-anchor="middle" x="427.58" y="-121.05" font-family="Times New Roman,serif" font-size="14.00">b</text>
</g>
<!-- q3p1&#45;&gt;q4p1 -->
<g id="edge6" class="edge">
<title>q3p1&#45;&gt;q4p1</title>
<path fill="none" stroke="black" d="M507.02,-152.6C521.63,-142.12 540.68,-128.44 556.67,-116.96"/>
<polygon fill="black" stroke="black" points="559.11,-119.52 565.2,-110.85 555.03,-113.83 559.11,-119.52"/>
<text text-anchor="middle" x="538.07" y="-135.05" font-family="Times New Roman,serif" font-size="14.00">a</text>
</g>
<!-- q3p2&#45;&gt;q4p2 -->
<g id="edge7" class="edge">
<title>q3p2&#45;&gt;q4p2</title>
<path fill="none" stroke="black" d="M402.1,-102.03C414.77,-94.75 430.46,-85.74 444.56,-77.65"/>
<polygon fill="black" stroke="black" points="446.62,-80.5 453.55,-72.48 443.13,-74.43 446.62,-80.5"/>
<text text-anchor="middle" x="427.58" y="-92.05" font-family="Times New Roman,serif" font-size="14.00">a</text>
</g>
<!-- q3p2&#45;&gt;q3p1 -->
<g id="edge15" class="edge">
<title>q3p2&#45;&gt;q3p1</title>
<path fill="none" stroke="black" d="M402.63,-129.08C416.01,-135.86 432.63,-144.29 447.19,-151.68"/>
<polygon fill="black" stroke="black" points="445.9,-154.95 456.4,-156.35 449.07,-148.71 445.9,-154.95"/>
<text text-anchor="middle" x="427.58" y="-146.05" font-family="Times New Roman,serif" font-size="14.00">b</text>
</g>
<!-- q4p1&#45;&gt;q4p2 -->
<g id="edge16" class="edge">
<title>q4p1&#45;&gt;q4p2</title>
<path fill="none" stroke="black" d="M561.51,-84.5C550.02,-80.32 536.37,-75.36 523.74,-70.76"/>
<polygon fill="black" stroke="black" points="524.93,-67.47 514.33,-67.34 522.53,-74.05 524.93,-67.47"/>
<text text-anchor="middle" x="538.07" y="-81.05" font-family="Times New Roman,serif" font-size="14.00">b</text>
</g>
<!-- q4p1&#45;&gt;q4p1 -->
<g id="edge8" class="edge">
<title>q4p1&#45;&gt;q4p1</title>
<path fill="none" stroke="black" d="M579.97,-122.38C579.66,-132.86 582.78,-141.49 589.32,-141.49 593.51,-141.49 596.3,-137.95 597.68,-132.65"/>
<polygon fill="black" stroke="black" points="601.19,-132.67 598.68,-122.38 594.23,-132 601.19,-132.67"/>
<text text-anchor="middle" x="589.32" y="-145.29" font-family="Times New Roman,serif" font-size="14.00">a</text>
</g>
</g>
</svg>
