<?xml version="1.0" encoding="UTF-8" standalone="no"?>
<!DOCTYPE svg PUBLIC "-//W3C//DTD SVG 1.1//EN"
 "http://www.w3.org/Graphics/SVG/1.1/DTD/svg11.dtd">
<!-- Generated by graphviz version 3.0.0 (20220226.1711)
 -->
<!-- Pages: 1 -->
<svg width="728pt" height="202pt"
 viewBox="0.00 0.00 728.06 202.49" xmlns="http://www.w3.org/2000/svg" xmlns:xlink="http://www.w3.org/1999/xlink">
<g id="graph0" class="graph" transform="scale(1 1) rotate(0) translate(4 198.49)">
<polygon fill="white" stroke="transparent" points="-4,4 -4,-198.49 724.06,-198.49 724.06,4 -4,4"/>
<text text-anchor="middle" x="360.03" y="-7.8" font-family="Times New Roman,serif" font-size="14.00">difference</text>
<!-- null -->
<g id="node1" class="node">
<title>null</title>
<ellipse fill="black" stroke="black" cx="1.8" cy="-90.25" rx="1.8" ry="1.8"/>
</g>
<!-- q1p1 -->
<g id="node3" class="node">
<title>q1p1</title>
<ellipse fill="none" stroke="black" cx="69.85" cy="-90.25" rx="29.5" ry="29.5"/>
<text text-anchor="middle" x="69.85" y="-86.55" font-family="Times New Roman,serif" font-size="14.00">q1p1</text>
</g>
<!-- null&#45;&gt;q1p1 -->
<g id="edge1" class="edge">
<title>null&#45;&gt;q1p1</title>
<path fill="none" stroke="black" d="M3.95,-90.25C7.43,-90.25 18.36,-90.25 30.29,-90.25"/>
<polygon fill="black" stroke="black" points="30.39,-93.75 40.39,-90.25 30.39,-86.75 30.39,-93.75"/>
</g>
<!-- q4p1 -->
<g id="node2" class="node">
<title>q4p1</title>
<ellipse fill="none" stroke="black" cx="584.32" cy="-128.25" rx="29.47" ry="29.47"/>
<ellipse fill="none" stroke="black" cx="584.32" cy="-128.25" rx="33.5" ry="33.5"/>
<text text-anchor="middle" x="584.32" y="-124.55" font-family="Times New Roman,serif" font-size="14.00">q4p1</text>
</g>
<!-- q4p1&#45;&gt;q4p1 -->
<g id="edge8" class="edge">
<title>q4p1&#45;&gt;q4p1</title>
<path fill="none" stroke="black" d="M574.2,-160.03C574.14,-170.82 577.52,-179.49 584.32,-179.49 588.79,-179.49 591.77,-175.76 593.29,-170.14"/>
<polygon fill="black" stroke="black" points="596.78,-170.36 594.45,-160.03 589.83,-169.56 596.78,-170.36"/>
<text text-anchor="middle" x="584.32" y="-183.29" font-family="Times New Roman,serif" font-size="14.00">a</text>
</g>
<!-- q4p2 -->
<g id="node9" class="node">
<title>q4p2</title>
<ellipse fill="none" stroke="black" cx="690.82" cy="-90.25" rx="29.5" ry="29.5"/>
<text text-anchor="middle" x="690.82" y="-86.55" font-family="Times New Roman,serif" font-size="14.00">q4p2</text>
</g>
<!-- q4p1&#45;&gt;q4p2 -->
<g id="edge16" class="edge">
<title>q4p1&#45;&gt;q4p2</title>
<path fill="none" stroke="black" d="M609.14,-106.09C616.98,-100.12 626.13,-94.44 635.57,-91.25 640.57,-89.55 645.98,-88.55 651.39,-88.02"/>
<polygon fill="black" stroke="black" points="651.84,-91.51 661.66,-87.53 651.5,-84.52 651.84,-91.51"/>
<text text-anchor="middle" x="639.57" y="-95.05" font-family="Times New Roman,serif" font-size="14.00">b</text>
</g>
<!-- q2p1 -->
<g id="node4" class="node">
<title>q2p1</title>
<ellipse fill="none" stroke="black" cx="172.34" cy="-128.25" rx="29.5" ry="29.5"/>
<text text-anchor="middle" x="172.34" y="-124.55" font-family="Times New Roman,serif" font-size="14.00">q2p1</text>
</g>
<!-- q1p1&#45;&gt;q2p1 -->
<g id="edge2" class="edge">
<title>q1p1&#45;&gt;q2p1</title>
<path fill="none" stroke="black" d="M97.51,-100.33C108.99,-104.67 122.58,-109.81 134.95,-114.49"/>
<polygon fill="black" stroke="black" points="133.96,-117.85 144.55,-118.12 136.43,-111.31 133.96,-117.85"/>
<text text-anchor="middle" x="121.09" y="-114.05" font-family="Times New Roman,serif" font-size="14.00">a</text>
</g>
<!-- q1p2 -->
<g id="node5" class="node">
<title>q1p2</title>
<ellipse fill="none" stroke="black" cx="172.34" cy="-52.25" rx="29.5" ry="29.5"/>
<text text-anchor="middle" x="172.34" y="-48.55" font-family="Times New Roman,serif" font-size="14.00">q1p2</text>
</g>
<!-- q1p1&#45;&gt;q1p2 -->
<g id="edge10" class="edge">
<title>q1p1&#45;&gt;q1p2</title>
<path fill="none" stroke="black" d="M97.51,-80.16C108.99,-75.83 122.58,-70.69 134.95,-66.01"/>
<polygon fill="black" stroke="black" points="136.43,-69.19 144.55,-62.38 133.96,-62.64 136.43,-69.19"/>
<text text-anchor="middle" x="121.09" y="-77.05" font-family="Times New Roman,serif" font-size="14.00">b</text>
</g>
<!-- q2p2 -->
<g id="node6" class="node">
<title>q2p2</title>
<ellipse fill="none" stroke="black" cx="274.84" cy="-90.25" rx="29.5" ry="29.5"/>
<text text-anchor="middle" x="274.84" y="-86.55" font-family="Times New Roman,serif" font-size="14.00">q2p2</text>
</g>
<!-- q2p1&#45;&gt;q2p2 -->
<g id="edge12" class="edge">
<title>q2p1&#45;&gt;q2p2</title>
<path fill="none" stroke="black" d="M200.01,-118.16C211.48,-113.83 225.07,-108.69 237.45,-104.01"/>
<polygon fill="black" stroke="black" points="238.93,-107.19 247.05,-100.38 236.45,-100.64 238.93,-107.19"/>
<text text-anchor="middle" x="223.59" y="-114.05" font-family="Times New Roman,serif" font-size="14.00">b</text>
</g>
<!-- q3p1 -->
<g id="node7" class="node">
<title>q3p1</title>
<ellipse fill="none" stroke="black" cx="478.83" cy="-128.25" rx="29.5" ry="29.5"/>
<text text-anchor="middle" x="478.83" y="-124.55" font-family="Times New Roman,serif" font-size="14.00">q3p1</text>
</g>
<!-- q2p1&#45;&gt;q3p1 -->
<g id="edge4" class="edge">
<title>q2p1&#45;&gt;q3p1</title>
<path fill="none" stroke="black" d="M201.71,-128.96C207.62,-129.08 213.81,-129.18 219.59,-129.25 313.8,-130.27 337.37,-130.27 431.58,-129.25 434.11,-129.22 436.72,-129.18 439.34,-129.14"/>
<polygon fill="black" stroke="black" points="439.52,-132.64 449.46,-128.96 439.39,-125.64 439.52,-132.64"/>
<text text-anchor="middle" x="325.58" y="-133.05" font-family="Times New Roman,serif" font-size="14.00">a</text>
</g>
<!-- q1p2&#45;&gt;q1p1 -->
<g id="edge11" class="edge">
<title>q1p2&#45;&gt;q1p1</title>
<path fill="none" stroke="black" d="M143.38,-47.89C134.73,-47.55 125.32,-48.24 117.09,-51.25 110.18,-53.77 103.58,-57.84 97.64,-62.42"/>
<polygon fill="black" stroke="black" points="95.38,-59.75 90,-68.88 99.89,-65.1 95.38,-59.75"/>
<text text-anchor="middle" x="121.09" y="-55.05" font-family="Times New Roman,serif" font-size="14.00">b</text>
</g>
<!-- q1p2&#45;&gt;q2p2 -->
<g id="edge3" class="edge">
<title>q1p2&#45;&gt;q2p2</title>
<path fill="none" stroke="black" d="M201.57,-49.33C210.14,-49.35 219.44,-50.3 227.59,-53.25 234.09,-55.59 240.36,-59.26 246.08,-63.39"/>
<polygon fill="black" stroke="black" points="244.01,-66.21 254.02,-69.67 248.35,-60.72 244.01,-66.21"/>
<text text-anchor="middle" x="223.59" y="-57.05" font-family="Times New Roman,serif" font-size="14.00">a</text>
</g>
<!-- q2p2&#45;&gt;q2p1 -->
<g id="edge13" class="edge">
<title>q2p2&#45;&gt;q2p1</title>
<path fill="none" stroke="black" d="M245.86,-85.13C237.21,-84.62 227.8,-85.19 219.59,-88.25 212.61,-90.85 205.99,-95.02 200.05,-99.72"/>
<polygon fill="black" stroke="black" points="197.67,-97.15 192.4,-106.34 202.25,-102.44 197.67,-97.15"/>
<text text-anchor="middle" x="223.59" y="-92.05" font-family="Times New Roman,serif" font-size="14.00">b</text>
</g>
<!-- q3p2 -->
<g id="node8" class="node">
<title>q3p2</title>
<ellipse fill="none" stroke="black" cx="376.33" cy="-90.25" rx="29.5" ry="29.5"/>
<text text-anchor="middle" x="376.33" y="-86.55" font-family="Times New Roman,serif" font-size="14.00">q3p2</text>
</g>
<!-- q2p2&#45;&gt;q3p2 -->
<g id="edge5" class="edge">
<title>q2p2&#45;&gt;q3p2</title>
<path fill="none" stroke="black" d="M304.35,-90.25C314.44,-90.25 325.98,-90.25 336.77,-90.25"/>
<polygon fill="black" stroke="black" points="336.82,-93.75 346.82,-90.25 336.82,-86.75 336.82,-93.75"/>
<text text-anchor="middle" x="325.58" y="-94.05" font-family="Times New Roman,serif" font-size="14.00">a</text>
</g>
<!-- q3p1&#45;&gt;q4p1 -->
<g id="edge6" class="edge">
<title>q3p1&#45;&gt;q4p1</title>
<path fill="none" stroke="black" d="M508.11,-128.25C518.18,-128.25 529.75,-128.25 540.75,-128.25"/>
<polygon fill="black" stroke="black" points="541.05,-131.75 551.05,-128.25 541.05,-124.75 541.05,-131.75"/>
<text text-anchor="middle" x="529.57" y="-132.05" font-family="Times New Roman,serif" font-size="14.00">a</text>
</g>
<!-- q3p1&#45;&gt;q3p2 -->
<g id="edge14" class="edge">
<title>q3p1&#45;&gt;q3p2</title>
<path fill="none" stroke="black" d="M458.01,-107.67C450.42,-101.15 441.25,-94.74 431.58,-91.25 426.61,-89.45 421.22,-88.4 415.83,-87.84"/>
<polygon fill="black" stroke="black" points="415.72,-84.33 405.56,-87.33 415.37,-91.32 415.72,-84.33"/>
<text text-anchor="middle" x="427.58" y="-95.05" font-family="Times New Roman,serif" font-size="14.00">b</text>
</g>
<!-- q3p2&#45;&gt;q3p1 -->
<g id="edge15" class="edge">
<title>q3p2&#45;&gt;q3p1</title>
<path fill="none" stroke="black" d="M404,-100.33C415.47,-104.67 429.06,-109.81 441.44,-114.49"/>
<polygon fill="black" stroke="black" points="440.44,-117.85 451.04,-118.12 442.92,-111.31 440.44,-117.85"/>
<text text-anchor="middle" x="427.58" y="-114.05" font-family="Times New Roman,serif" font-size="14.00">b</text>
</g>
<!-- q3p2&#45;&gt;q4p2 -->
<g id="edge7" class="edge">
<title>q3p2&#45;&gt;q4p2</title>
<path fill="none" stroke="black" d="M405.66,-86.7C411.57,-86.09 417.77,-85.56 423.58,-85.25 427.13,-85.06 428.02,-85.24 431.58,-85.25 525.8,-85.47 549.45,-81.96 643.57,-86.25 646.1,-86.36 648.72,-86.51 651.35,-86.68"/>
<polygon fill="black" stroke="black" points="651.24,-90.18 661.47,-87.43 651.75,-83.2 651.24,-90.18"/>
<text text-anchor="middle" x="529.57" y="-89.05" font-family="Times New Roman,serif" font-size="14.00">a</text>
</g>
<!-- q4p2&#45;&gt;q4p1 -->
<g id="edge17" class="edge">
<title>q4p2&#45;&gt;q4p1</title>
<path fill="none" stroke="black" d="M663,-100C651.52,-104.17 637.87,-109.14 625.23,-113.73"/>
<polygon fill="black" stroke="black" points="624.03,-110.45 615.83,-117.15 626.42,-117.03 624.03,-110.45"/>
<text text-anchor="middle" x="639.57" y="-113.05" font-family="Times New Roman,serif" font-size="14.00">b</text>
</g>
<!-- q4p2&#45;&gt;q4p2 -->
<g id="edge9" class="edge">
<title>q4p2&#45;&gt;q4p2</title>
<path fill="none" stroke="black" d="M681.46,-118.38C681.16,-128.86 684.27,-137.49 690.82,-137.49 695.01,-137.49 697.79,-133.95 699.17,-128.65"/>
<polygon fill="black" stroke="black" points="702.69,-128.67 700.17,-118.38 695.72,-128 702.69,-128.67"/>
<text text-anchor="middle" x="690.82" y="-141.29" font-family="Times New Roman,serif" font-size="14.00">a</text>
</g>
</g>
</svg>
