<?xml version="1.0" encoding="UTF-8" standalone="no"?>
<!DOCTYPE svg PUBLIC "-//W3C//DTD SVG 1.1//EN"
 "http://www.w3.org/Graphics/SVG/1.1/DTD/svg11.dtd">
<!-- Generated by graphviz version 3.0.0 (20220226.1711)
 -->
<!-- Pages: 1 -->
<svg width="697pt" height="462pt"
 viewBox="0.00 0.00 697.46 462.49" xmlns="http://www.w3.org/2000/svg" xmlns:xlink="http://www.w3.org/1999/xlink">
<g id="graph0" class="graph" transform="scale(1 1) rotate(0) translate(4 458.49)">
<polygon fill="white" stroke="transparent" points="-4,4 -4,-458.49 693.46,-458.49 693.46,4 -4,4"/>
<text text-anchor="middle" x="344.73" y="-7.8" font-family="Times New Roman,serif" font-size="14.00">Mock</text>
<!-- null -->
<g id="node1" class="node">
<title>null</title>
<ellipse fill="black" stroke="black" cx="33.25" cy="-116.25" rx="1.8" ry="1.8"/>
</g>
<!-- q1p1 -->
<g id="node8" class="node">
<title>q1p1</title>
<ellipse fill="none" stroke="black" cx="132.74" cy="-116.25" rx="29.5" ry="29.5"/>
<text text-anchor="middle" x="132.74" y="-112.55" font-family="Times New Roman,serif" font-size="14.00">q1p1</text>
</g>
<!-- null&#45;&gt;q1p1 -->
<g id="edge1" class="edge">
<title>null&#45;&gt;q1p1</title>
<path fill="none" stroke="black" d="M35.34,-116.25C41.13,-116.25 68.78,-116.25 92.99,-116.25"/>
<polygon fill="black" stroke="black" points="93.08,-119.75 103.08,-116.25 93.08,-112.75 93.08,-119.75"/>
</g>
<!-- q4p2 -->
<g id="node2" class="node">
<title>q4p2</title>
<ellipse fill="none" stroke="black" cx="545.72" cy="-56.25" rx="29.47" ry="29.47"/>
<ellipse fill="none" stroke="black" cx="545.72" cy="-56.25" rx="33.5" ry="33.5"/>
<text text-anchor="middle" x="545.72" y="-52.55" font-family="Times New Roman,serif" font-size="14.00">q4p2</text>
</g>
<!-- q4p2&#45;&gt;q4p2 -->
<g id="edge9" class="edge">
<title>q4p2&#45;&gt;q4p2</title>
<path fill="none" stroke="black" d="M535.6,-88.03C535.54,-98.82 538.92,-107.49 545.72,-107.49 550.19,-107.49 553.17,-103.76 554.69,-98.14"/>
<polygon fill="black" stroke="black" points="558.18,-98.36 555.85,-88.03 551.23,-97.56 558.18,-98.36"/>
<text text-anchor="middle" x="545.72" y="-111.29" font-family="Times New Roman,serif" font-size="14.00">a</text>
</g>
<!-- q4p1 -->
<g id="node3" class="node">
<title>q4p1</title>
<ellipse fill="none" stroke="black" cx="656.22" cy="-94.25" rx="29.47" ry="29.47"/>
<ellipse fill="none" stroke="black" cx="656.22" cy="-94.25" rx="33.5" ry="33.5"/>
<text text-anchor="middle" x="656.22" y="-90.55" font-family="Times New Roman,serif" font-size="14.00">q4p1</text>
</g>
<!-- q4p2&#45;&gt;q4p1 -->
<g id="edge17" class="edge">
<title>q4p2&#45;&gt;q4p1</title>
<path fill="none" stroke="black" d="M578.78,-51.78C587.47,-51.62 596.74,-52.43 604.97,-55.25 611.57,-57.51 617.97,-61.03 623.87,-65.04"/>
<polygon fill="black" stroke="black" points="622.01,-68.02 632.12,-71.2 626.2,-62.42 622.01,-68.02"/>
<text text-anchor="middle" x="600.97" y="-59.05" font-family="Times New Roman,serif" font-size="14.00">b</text>
</g>
<!-- q4p1&#45;&gt;q4p2 -->
<g id="edge16" class="edge">
<title>q4p1&#45;&gt;q4p2</title>
<path fill="none" stroke="black" d="M624.56,-83.51C612.87,-79.42 599.37,-74.69 586.93,-70.33"/>
<polygon fill="black" stroke="black" points="587.83,-66.94 577.23,-66.93 585.51,-73.54 587.83,-66.94"/>
<text text-anchor="middle" x="600.97" y="-81.05" font-family="Times New Roman,serif" font-size="14.00">b</text>
</g>
<!-- q4p1&#45;&gt;q4p1 -->
<g id="edge8" class="edge">
<title>q4p1&#45;&gt;q4p1</title>
<path fill="none" stroke="black" d="M646.09,-126.03C646.04,-136.82 649.41,-145.49 656.22,-145.49 660.68,-145.49 663.67,-141.76 665.18,-136.14"/>
<polygon fill="black" stroke="black" points="668.68,-136.36 666.34,-126.03 661.72,-135.56 668.68,-136.36"/>
<text text-anchor="middle" x="656.22" y="-149.29" font-family="Times New Roman,serif" font-size="14.00">a</text>
</g>
<!-- p2q1 -->
<g id="node4" class="node">
<title>p2q1</title>
<ellipse fill="none" stroke="black" cx="33.25" cy="-169.25" rx="29.47" ry="29.47"/>
<ellipse fill="none" stroke="black" cx="33.25" cy="-169.25" rx="33.5" ry="33.5"/>
<text text-anchor="middle" x="33.25" y="-165.55" font-family="Times New Roman,serif" font-size="14.00">p2q1</text>
</g>
<!-- p2q2 -->
<g id="node5" class="node">
<title>p2q2</title>
<ellipse fill="none" stroke="black" cx="33.25" cy="-253.25" rx="29.47" ry="29.47"/>
<ellipse fill="none" stroke="black" cx="33.25" cy="-253.25" rx="33.5" ry="33.5"/>
<text text-anchor="middle" x="33.25" y="-249.55" font-family="Times New Roman,serif" font-size="14.00">p2q2</text>
</g>
<!-- p2q3 -->
<g id="node6" class="node">
<title>p2q3</title>
<ellipse fill="none" stroke="black" cx="33.25" cy="-337.25" rx="29.47" ry="29.47"/>
<ellipse fill="none" stroke="black" cx="33.25" cy="-337.25" rx="33.5" ry="33.5"/>
<text text-anchor="middle" x="33.25" y="-333.55" font-family="Times New Roman,serif" font-size="14.00">p2q3</text>
</g>
<!-- p2q4 -->
<g id="node7" class="node">
<title>p2q4</title>
<ellipse fill="none" stroke="black" cx="33.25" cy="-421.25" rx="29.47" ry="29.47"/>
<ellipse fill="none" stroke="black" cx="33.25" cy="-421.25" rx="33.5" ry="33.5"/>
<text text-anchor="middle" x="33.25" y="-417.55" font-family="Times New Roman,serif" font-size="14.00">p2q4</text>
</g>
<!-- q2p1 -->
<g id="node9" class="node">
<title>q2p1</title>
<ellipse fill="none" stroke="black" cx="235.24" cy="-154.25" rx="29.5" ry="29.5"/>
<text text-anchor="middle" x="235.24" y="-150.55" font-family="Times New Roman,serif" font-size="14.00">q2p1</text>
</g>
<!-- q1p1&#45;&gt;q2p1 -->
<g id="edge2" class="edge">
<title>q1p1&#45;&gt;q2p1</title>
<path fill="none" stroke="black" d="M160.41,-126.33C171.88,-130.67 185.47,-135.81 197.85,-140.49"/>
<polygon fill="black" stroke="black" points="196.85,-143.85 207.45,-144.12 199.33,-137.31 196.85,-143.85"/>
<text text-anchor="middle" x="183.99" y="-140.05" font-family="Times New Roman,serif" font-size="14.00">a</text>
</g>
<!-- q1p2 -->
<g id="node10" class="node">
<title>q1p2</title>
<ellipse fill="none" stroke="black" cx="235.24" cy="-78.25" rx="29.5" ry="29.5"/>
<text text-anchor="middle" x="235.24" y="-74.55" font-family="Times New Roman,serif" font-size="14.00">q1p2</text>
</g>
<!-- q1p1&#45;&gt;q1p2 -->
<g id="edge10" class="edge">
<title>q1p1&#45;&gt;q1p2</title>
<path fill="none" stroke="black" d="M160.41,-106.16C171.88,-101.83 185.47,-96.69 197.85,-92.01"/>
<polygon fill="black" stroke="black" points="199.33,-95.19 207.45,-88.38 196.85,-88.64 199.33,-95.19"/>
<text text-anchor="middle" x="183.99" y="-103.05" font-family="Times New Roman,serif" font-size="14.00">b</text>
</g>
<!-- q2p2 -->
<g id="node11" class="node">
<title>q2p2</title>
<ellipse fill="none" stroke="black" cx="337.73" cy="-116.25" rx="29.5" ry="29.5"/>
<text text-anchor="middle" x="337.73" y="-112.55" font-family="Times New Roman,serif" font-size="14.00">q2p2</text>
</g>
<!-- q2p1&#45;&gt;q2p2 -->
<g id="edge12" class="edge">
<title>q2p1&#45;&gt;q2p2</title>
<path fill="none" stroke="black" d="M262.9,-144.16C274.37,-139.83 287.97,-134.69 300.34,-130.01"/>
<polygon fill="black" stroke="black" points="301.82,-133.19 309.94,-126.38 299.35,-126.64 301.82,-133.19"/>
<text text-anchor="middle" x="286.48" y="-140.05" font-family="Times New Roman,serif" font-size="14.00">b</text>
</g>
<!-- q3p1 -->
<g id="node12" class="node">
<title>q3p1</title>
<ellipse fill="none" stroke="black" cx="545.72" cy="-169.25" rx="29.5" ry="29.5"/>
<text text-anchor="middle" x="545.72" y="-165.55" font-family="Times New Roman,serif" font-size="14.00">q3p1</text>
</g>
<!-- q2p1&#45;&gt;q3p1 -->
<g id="edge4" class="edge">
<title>q2p1&#45;&gt;q3p1</title>
<path fill="none" stroke="black" d="M264.71,-155.63C320.26,-158.33 443.17,-164.31 506.04,-167.37"/>
<polygon fill="black" stroke="black" points="506.16,-170.88 516.32,-167.87 506.5,-163.88 506.16,-170.88"/>
<text text-anchor="middle" x="388.48" y="-165.05" font-family="Times New Roman,serif" font-size="14.00">a</text>
</g>
<!-- q1p2&#45;&gt;q1p1 -->
<g id="edge11" class="edge">
<title>q1p2&#45;&gt;q1p1</title>
<path fill="none" stroke="black" d="M206.27,-73.89C197.63,-73.55 188.22,-74.24 179.99,-77.25 173.07,-79.77 166.47,-83.84 160.54,-88.42"/>
<polygon fill="black" stroke="black" points="158.27,-85.75 152.89,-94.88 162.79,-91.1 158.27,-85.75"/>
<text text-anchor="middle" x="183.99" y="-81.05" font-family="Times New Roman,serif" font-size="14.00">b</text>
</g>
<!-- q1p2&#45;&gt;q2p2 -->
<g id="edge3" class="edge">
<title>q1p2&#45;&gt;q2p2</title>
<path fill="none" stroke="black" d="M264.47,-75.33C273.04,-75.35 282.33,-76.3 290.48,-79.25 296.98,-81.59 303.25,-85.26 308.97,-89.39"/>
<polygon fill="black" stroke="black" points="306.9,-92.21 316.92,-95.67 311.24,-86.72 306.9,-92.21"/>
<text text-anchor="middle" x="286.48" y="-83.05" font-family="Times New Roman,serif" font-size="14.00">a</text>
</g>
<!-- q2p2&#45;&gt;q2p1 -->
<g id="edge13" class="edge">
<title>q2p2&#45;&gt;q2p1</title>
<path fill="none" stroke="black" d="M308.75,-111.13C300.1,-110.62 290.7,-111.19 282.48,-114.25 275.51,-116.85 268.88,-121.02 262.94,-125.72"/>
<polygon fill="black" stroke="black" points="260.56,-123.15 255.29,-132.34 265.14,-128.44 260.56,-123.15"/>
<text text-anchor="middle" x="286.48" y="-118.05" font-family="Times New Roman,serif" font-size="14.00">b</text>
</g>
<!-- q3p2 -->
<g id="node13" class="node">
<title>q3p2</title>
<ellipse fill="none" stroke="black" cx="439.23" cy="-116.25" rx="29.5" ry="29.5"/>
<text text-anchor="middle" x="439.23" y="-112.55" font-family="Times New Roman,serif" font-size="14.00">q3p2</text>
</g>
<!-- q2p2&#45;&gt;q3p2 -->
<g id="edge5" class="edge">
<title>q2p2&#45;&gt;q3p2</title>
<path fill="none" stroke="black" d="M367.24,-116.25C377.34,-116.25 388.87,-116.25 399.66,-116.25"/>
<polygon fill="black" stroke="black" points="399.71,-119.75 409.71,-116.25 399.71,-112.75 399.71,-119.75"/>
<text text-anchor="middle" x="388.48" y="-120.05" font-family="Times New Roman,serif" font-size="14.00">a</text>
</g>
<!-- q3p1&#45;&gt;q4p1 -->
<g id="edge6" class="edge">
<title>q3p1&#45;&gt;q4p1</title>
<path fill="none" stroke="black" d="M570.26,-152.97C584.8,-142.92 603.74,-129.83 620.04,-118.57"/>
<polygon fill="black" stroke="black" points="622.05,-121.43 628.28,-112.87 618.07,-115.67 622.05,-121.43"/>
<text text-anchor="middle" x="600.97" y="-137.05" font-family="Times New Roman,serif" font-size="14.00">a</text>
</g>
<!-- q3p1&#45;&gt;q3p2 -->
<g id="edge14" class="edge">
<title>q3p1&#45;&gt;q3p2</title>
<path fill="none" stroke="black" d="M526.37,-147.08C515.39,-134.48 502.13,-120.58 494.47,-117.25 489.58,-115.12 484.19,-113.88 478.77,-113.25"/>
<polygon fill="black" stroke="black" points="478.6,-109.73 468.43,-112.7 478.23,-116.72 478.6,-109.73"/>
<text text-anchor="middle" x="490.47" y="-121.05" font-family="Times New Roman,serif" font-size="14.00">b</text>
</g>
<!-- q3p2&#45;&gt;q4p2 -->
<g id="edge7" class="edge">
<title>q3p2&#45;&gt;q4p2</title>
<path fill="none" stroke="black" d="M464.99,-102.03C477.66,-94.75 493.35,-85.74 507.46,-77.65"/>
<polygon fill="black" stroke="black" points="509.51,-80.5 516.44,-72.48 506.03,-74.43 509.51,-80.5"/>
<text text-anchor="middle" x="490.47" y="-92.05" font-family="Times New Roman,serif" font-size="14.00">a</text>
</g>
<!-- q3p2&#45;&gt;q3p1 -->
<g id="edge15" class="edge">
<title>q3p2&#45;&gt;q3p1</title>
<path fill="none" stroke="black" d="M465.52,-129.08C478.9,-135.86 495.52,-144.29 510.08,-151.68"/>
<polygon fill="black" stroke="black" points="508.8,-154.95 519.3,-156.35 511.96,-148.71 508.8,-154.95"/>
<text text-anchor="middle" x="490.47" y="-146.05" font-family="Times New Roman,serif" font-size="14.00">b</text>
</g>
</g>
</svg>
