<?xml version="1.0" encoding="UTF-8" standalone="no"?>
<!DOCTYPE svg PUBLIC "-//W3C//DTD SVG 1.1//EN"
 "http://www.w3.org/Graphics/SVG/1.1/DTD/svg11.dtd">
<!-- Generated by graphviz version 3.0.0 (20220226.1711)
 -->
<!-- Pages: 1 -->
<svg width="181pt" height="112pt"
 viewBox="0.00 0.00 181.19 112.30" xmlns="http://www.w3.org/2000/svg" xmlns:xlink="http://www.w3.org/1999/xlink">
<g id="graph0" class="graph" transform="scale(1 1) rotate(0) translate(4 108.3)">
<polygon fill="white" stroke="transparent" points="-4,4 -4,-108.3 177.19,-108.3 177.19,4 -4,4"/>
<text text-anchor="middle" x="86.6" y="-7.8" font-family="Times New Roman,serif" font-size="14.00">Mock2</text>
<!-- null -->
<g id="node1" class="node">
<title>null</title>
<ellipse fill="black" stroke="black" cx="1.8" cy="-47.15" rx="1.8" ry="1.8"/>
</g>
<!-- p1 -->
<g id="node3" class="node">
<title>p1</title>
<ellipse fill="none" stroke="black" cx="60.75" cy="-47.15" rx="20.3" ry="20.3"/>
<text text-anchor="middle" x="60.75" y="-43.45" font-family="Times New Roman,serif" font-size="14.00">p1</text>
</g>
<!-- null&#45;&gt;p1 -->
<g id="edge1" class="edge">
<title>null&#45;&gt;p1</title>
<path fill="none" stroke="black" d="M3.79,-47.15C7.15,-47.15 18.56,-47.15 30.21,-47.15"/>
<polygon fill="black" stroke="black" points="30.31,-50.65 40.31,-47.15 30.31,-43.65 30.31,-50.65"/>
</g>
<!-- p2 -->
<g id="node2" class="node">
<title>p2</title>
<ellipse fill="none" stroke="black" cx="149.04" cy="-47.15" rx="20.27" ry="20.27"/>
<ellipse fill="none" stroke="black" cx="149.04" cy="-47.15" rx="24.3" ry="24.3"/>
<text text-anchor="middle" x="149.04" y="-43.45" font-family="Times New Roman,serif" font-size="14.00">p2</text>
</g>
<!-- p2&#45;&gt;p2 -->
<g id="edge3" class="edge">
<title>p2&#45;&gt;p2</title>
<path fill="none" stroke="black" d="M140.55,-70.13C139.75,-80.41 142.58,-89.3 149.04,-89.3 153.19,-89.3 155.84,-85.65 157,-80.32"/>
<polygon fill="black" stroke="black" points="160.5,-80.3 157.53,-70.13 153.51,-79.93 160.5,-80.3"/>
<text text-anchor="middle" x="149.04" y="-93.1" font-family="Times New Roman,serif" font-size="14.00">a</text>
</g>
<!-- p2&#45;&gt;p1 -->
<g id="edge5" class="edge">
<title>p2&#45;&gt;p1</title>
<path fill="none" stroke="black" d="M128.81,-33.84C119.89,-29.21 109.04,-25.71 98.9,-28.15 94.97,-29.09 90.99,-30.53 87.16,-32.2"/>
<polygon fill="black" stroke="black" points="85.52,-29.11 78.11,-36.67 88.62,-35.38 85.52,-29.11"/>
<text text-anchor="middle" x="102.9" y="-31.95" font-family="Times New Roman,serif" font-size="14.00">b</text>
</g>
<!-- p1&#45;&gt;p2 -->
<g id="edge4" class="edge">
<title>p1&#45;&gt;p2</title>
<path fill="none" stroke="black" d="M80.9,-47.15C90.78,-47.15 103.13,-47.15 114.53,-47.15"/>
<polygon fill="black" stroke="black" points="114.64,-50.65 124.64,-47.15 114.64,-43.65 114.64,-50.65"/>
<text text-anchor="middle" x="102.9" y="-50.95" font-family="Times New Roman,serif" font-size="14.00">b</text>
</g>
<!-- p1&#45;&gt;p1 -->
<g id="edge2" class="edge">
<title>p1&#45;&gt;p1</title>
<path fill="none" stroke="black" d="M53.87,-66.38C52.82,-76.33 55.11,-85.3 60.75,-85.3 64.27,-85.3 66.49,-81.79 67.4,-76.74"/>
<polygon fill="black" stroke="black" points="70.91,-76.46 67.62,-66.38 63.91,-76.31 70.91,-76.46"/>
<text text-anchor="middle" x="60.75" y="-89.1" font-family="Times New Roman,serif" font-size="14.00">a</text>
</g>
</g>
</svg>
