<?xml version="1.0" encoding="UTF-8" standalone="no"?>
<!DOCTYPE svg PUBLIC "-//W3C//DTD SVG 1.1//EN"
 "http://www.w3.org/Graphics/SVG/1.1/DTD/svg11.dtd">
<!-- Generated by graphviz version 3.0.0 (20220226.1711)
 -->
<!-- Pages: 1 -->
<svg width="347pt" height="145pt"
 viewBox="0.00 0.00 346.79 145.30" xmlns="http://www.w3.org/2000/svg" xmlns:xlink="http://www.w3.org/1999/xlink">
<g id="graph0" class="graph" transform="scale(1 1) rotate(0) translate(4 141.3)">
<polygon fill="white" stroke="transparent" points="-4,4 -4,-141.3 342.79,-141.3 342.79,4 -4,4"/>
<text text-anchor="middle" x="169.39" y="-7.8" font-family="Times New Roman,serif" font-size="14.00">Mock1</text>
<!-- null -->
<g id="node1" class="node">
<title>null</title>
<ellipse fill="black" stroke="black" cx="1.8" cy="-47.15" rx="1.8" ry="1.8"/>
</g>
<!-- q1 -->
<g id="node3" class="node">
<title>q1</title>
<ellipse fill="none" stroke="black" cx="60.75" cy="-47.15" rx="20.3" ry="20.3"/>
<text text-anchor="middle" x="60.75" y="-43.45" font-family="Times New Roman,serif" font-size="14.00">q1</text>
</g>
<!-- null&#45;&gt;q1 -->
<g id="edge1" class="edge">
<title>null&#45;&gt;q1</title>
<path fill="none" stroke="black" d="M3.79,-47.15C7.15,-47.15 18.56,-47.15 30.21,-47.15"/>
<polygon fill="black" stroke="black" points="30.31,-50.65 40.31,-47.15 30.31,-43.65 30.31,-50.65"/>
</g>
<!-- q4 -->
<g id="node2" class="node">
<title>q4</title>
<ellipse fill="none" stroke="black" cx="314.64" cy="-47.15" rx="20.27" ry="20.27"/>
<ellipse fill="none" stroke="black" cx="314.64" cy="-47.15" rx="24.3" ry="24.3"/>
<text text-anchor="middle" x="314.64" y="-43.45" font-family="Times New Roman,serif" font-size="14.00">q4</text>
</g>
<!-- q4&#45;&gt;q4 -->
<g id="edge5" class="edge">
<title>q4&#45;&gt;q4</title>
<path fill="none" stroke="black" d="M310.55,-70.98C310.27,-80.89 311.63,-89.3 314.64,-89.3 316.52,-89.3 317.75,-86.01 318.35,-81.13"/>
<polygon fill="black" stroke="black" points="321.85,-81.1 318.73,-70.98 314.86,-80.84 321.85,-81.1"/>
<text text-anchor="middle" x="314.64" y="-93.1" font-family="Times New Roman,serif" font-size="14.00">a</text>
</g>
<!-- q4&#45;&gt;q4 -->
<g id="edge9" class="edge">
<title>q4&#45;&gt;q4</title>
<path fill="none" stroke="black" d="M307.5,-70.3C304.74,-88.56 307.12,-107.3 314.64,-107.3 320.75,-107.3 323.46,-94.93 322.79,-80.49"/>
<polygon fill="black" stroke="black" points="326.24,-79.9 321.78,-70.3 319.28,-80.59 326.24,-79.9"/>
<text text-anchor="middle" x="314.64" y="-111.1" font-family="Times New Roman,serif" font-size="14.00">b</text>
</g>
<!-- q1&#45;&gt;q1 -->
<g id="edge6" class="edge">
<title>q1&#45;&gt;q1</title>
<path fill="none" stroke="black" d="M53.87,-66.38C52.82,-76.33 55.11,-85.3 60.75,-85.3 64.27,-85.3 66.49,-81.79 67.4,-76.74"/>
<polygon fill="black" stroke="black" points="70.91,-76.46 67.62,-66.38 63.91,-76.31 70.91,-76.46"/>
<text text-anchor="middle" x="60.75" y="-89.1" font-family="Times New Roman,serif" font-size="14.00">b</text>
</g>
<!-- q2 -->
<g id="node4" class="node">
<title>q2</title>
<ellipse fill="none" stroke="black" cx="144.04" cy="-47.15" rx="20.3" ry="20.3"/>
<text text-anchor="middle" x="144.04" y="-43.45" font-family="Times New Roman,serif" font-size="14.00">q2</text>
</g>
<!-- q1&#45;&gt;q2 -->
<g id="edge2" class="edge">
<title>q1&#45;&gt;q2</title>
<path fill="none" stroke="black" d="M81.01,-47.15C90.66,-47.15 102.56,-47.15 113.34,-47.15"/>
<polygon fill="black" stroke="black" points="113.64,-50.65 123.64,-47.15 113.64,-43.65 113.64,-50.65"/>
<text text-anchor="middle" x="102.4" y="-50.95" font-family="Times New Roman,serif" font-size="14.00">a</text>
</g>
<!-- q2&#45;&gt;q2 -->
<g id="edge7" class="edge">
<title>q2&#45;&gt;q2</title>
<path fill="none" stroke="black" d="M136.85,-65.99C135.63,-76.09 138.03,-85.3 144.04,-85.3 147.9,-85.3 150.27,-81.52 151.15,-76.15"/>
<polygon fill="black" stroke="black" points="154.65,-76.02 151.24,-65.99 147.65,-75.96 154.65,-76.02"/>
<text text-anchor="middle" x="144.04" y="-89.1" font-family="Times New Roman,serif" font-size="14.00">b</text>
</g>
<!-- q3 -->
<g id="node5" class="node">
<title>q3</title>
<ellipse fill="none" stroke="black" cx="227.34" cy="-47.15" rx="20.3" ry="20.3"/>
<text text-anchor="middle" x="227.34" y="-43.45" font-family="Times New Roman,serif" font-size="14.00">q3</text>
</g>
<!-- q2&#45;&gt;q3 -->
<g id="edge3" class="edge">
<title>q2&#45;&gt;q3</title>
<path fill="none" stroke="black" d="M164.31,-47.15C173.96,-47.15 185.86,-47.15 196.64,-47.15"/>
<polygon fill="black" stroke="black" points="196.93,-50.65 206.93,-47.15 196.93,-43.65 196.93,-50.65"/>
<text text-anchor="middle" x="185.69" y="-50.95" font-family="Times New Roman,serif" font-size="14.00">a</text>
</g>
<!-- q3&#45;&gt;q4 -->
<g id="edge4" class="edge">
<title>q3&#45;&gt;q4</title>
<path fill="none" stroke="black" d="M247.7,-47.15C257.31,-47.15 269.19,-47.15 280.22,-47.15"/>
<polygon fill="black" stroke="black" points="280.42,-50.65 290.42,-47.15 280.42,-43.65 280.42,-50.65"/>
<text text-anchor="middle" x="268.99" y="-50.95" font-family="Times New Roman,serif" font-size="14.00">a</text>
</g>
<!-- q3&#45;&gt;q3 -->
<g id="edge8" class="edge">
<title>q3&#45;&gt;q3</title>
<path fill="none" stroke="black" d="M220.15,-65.99C218.93,-76.09 221.33,-85.3 227.34,-85.3 231.19,-85.3 233.56,-81.52 234.45,-76.15"/>
<polygon fill="black" stroke="black" points="237.95,-76.02 234.53,-65.99 230.95,-75.96 237.95,-76.02"/>
<text text-anchor="middle" x="227.34" y="-89.1" font-family="Times New Roman,serif" font-size="14.00">b</text>
</g>
</g>
</svg>
