<?xml version="1.0" encoding="UTF-8" standalone="no"?>
<!DOCTYPE svg PUBLIC "-//W3C//DTD SVG 1.1//EN"
 "http://www.w3.org/Graphics/SVG/1.1/DTD/svg11.dtd">
<!-- Generated by graphviz version 3.0.0 (20220226.1711)
 -->
<!-- Pages: 1 -->
<svg width="659pt" height="246pt"
 viewBox="0.00 0.00 658.57 246.49" xmlns="http://www.w3.org/2000/svg" xmlns:xlink="http://www.w3.org/1999/xlink">
<g id="graph0" class="graph" transform="scale(1 1) rotate(0) translate(4 242.49)">
<polygon fill="white" stroke="transparent" points="-4,4 -4,-242.49 654.57,-242.49 654.57,4 -4,4"/>
<text text-anchor="middle" x="325.28" y="-7.8" font-family="Times New Roman,serif" font-size="14.00">union</text>
<!-- null -->
<g id="node1" class="node">
<title>null</title>
<ellipse fill="black" stroke="black" cx="1.8" cy="-53.25" rx="1.8" ry="1.8"/>
</g>
<!-- q1p1 -->
<g id="node7" class="node">
<title>q1p1</title>
<ellipse fill="none" stroke="black" cx="69.85" cy="-53.25" rx="29.5" ry="29.5"/>
<text text-anchor="middle" x="69.85" y="-49.55" font-family="Times New Roman,serif" font-size="14.00">q1p1</text>
</g>
<!-- null&#45;&gt;q1p1 -->
<g id="edge1" class="edge">
<title>null&#45;&gt;q1p1</title>
<path fill="none" stroke="black" d="M3.95,-53.25C7.43,-53.25 18.36,-53.25 30.29,-53.25"/>
<polygon fill="black" stroke="black" points="30.39,-56.75 40.39,-53.25 30.39,-49.75 30.39,-56.75"/>
</g>
<!-- q4p2 -->
<g id="node2" class="node">
<title>q4p2</title>
<ellipse fill="none" stroke="black" cx="506.83" cy="-172.25" rx="29.47" ry="29.47"/>
<ellipse fill="none" stroke="black" cx="506.83" cy="-172.25" rx="33.5" ry="33.5"/>
<text text-anchor="middle" x="506.83" y="-168.55" font-family="Times New Roman,serif" font-size="14.00">q4p2</text>
</g>
<!-- q4p2&#45;&gt;q4p2 -->
<g id="edge9" class="edge">
<title>q4p2&#45;&gt;q4p2</title>
<path fill="none" stroke="black" d="M496.7,-204.03C496.65,-214.82 500.02,-223.49 506.83,-223.49 511.29,-223.49 514.28,-219.76 515.79,-214.14"/>
<polygon fill="black" stroke="black" points="519.29,-214.36 516.95,-204.03 512.33,-213.56 519.29,-214.36"/>
<text text-anchor="middle" x="506.83" y="-227.29" font-family="Times New Roman,serif" font-size="14.00">a</text>
</g>
<!-- q4p1 -->
<g id="node3" class="node">
<title>q4p1</title>
<ellipse fill="none" stroke="black" cx="617.32" cy="-134.25" rx="29.47" ry="29.47"/>
<ellipse fill="none" stroke="black" cx="617.32" cy="-134.25" rx="33.5" ry="33.5"/>
<text text-anchor="middle" x="617.32" y="-130.55" font-family="Times New Roman,serif" font-size="14.00">q4p1</text>
</g>
<!-- q4p2&#45;&gt;q4p1 -->
<g id="edge17" class="edge">
<title>q4p2&#45;&gt;q4p1</title>
<path fill="none" stroke="black" d="M538.34,-161.56C550.01,-157.47 563.51,-152.75 575.96,-148.38"/>
<polygon fill="black" stroke="black" points="577.38,-151.59 585.66,-144.99 575.07,-144.99 577.38,-151.59"/>
<text text-anchor="middle" x="562.07" y="-158.05" font-family="Times New Roman,serif" font-size="14.00">b</text>
</g>
<!-- q4p1&#45;&gt;q4p2 -->
<g id="edge16" class="edge">
<title>q4p1&#45;&gt;q4p2</title>
<path fill="none" stroke="black" d="M583.98,-131.31C575.38,-131.46 566.22,-132.49 558.07,-135.25 551.88,-137.34 545.81,-140.51 540.15,-144.12"/>
<polygon fill="black" stroke="black" points="537.83,-141.47 531.64,-150.08 541.84,-147.21 537.83,-141.47"/>
<text text-anchor="middle" x="562.07" y="-139.05" font-family="Times New Roman,serif" font-size="14.00">b</text>
</g>
<!-- q4p1&#45;&gt;q4p1 -->
<g id="edge8" class="edge">
<title>q4p1&#45;&gt;q4p1</title>
<path fill="none" stroke="black" d="M607.2,-166.03C607.14,-176.82 610.52,-185.49 617.32,-185.49 621.79,-185.49 624.77,-181.76 626.29,-176.14"/>
<polygon fill="black" stroke="black" points="629.78,-176.36 627.45,-166.03 622.83,-175.56 629.78,-176.36"/>
<text text-anchor="middle" x="617.32" y="-189.29" font-family="Times New Roman,serif" font-size="14.00">a</text>
</g>
<!-- q1p2 -->
<g id="node4" class="node">
<title>q1p2</title>
<ellipse fill="none" stroke="black" cx="176.34" cy="-91.25" rx="29.47" ry="29.47"/>
<ellipse fill="none" stroke="black" cx="176.34" cy="-91.25" rx="33.5" ry="33.5"/>
<text text-anchor="middle" x="176.34" y="-87.55" font-family="Times New Roman,serif" font-size="14.00">q1p2</text>
</g>
<!-- q2p2 -->
<g id="node5" class="node">
<title>q2p2</title>
<ellipse fill="none" stroke="black" cx="285.84" cy="-91.25" rx="29.47" ry="29.47"/>
<ellipse fill="none" stroke="black" cx="285.84" cy="-91.25" rx="33.5" ry="33.5"/>
<text text-anchor="middle" x="285.84" y="-87.55" font-family="Times New Roman,serif" font-size="14.00">q2p2</text>
</g>
<!-- q1p2&#45;&gt;q2p2 -->
<g id="edge3" class="edge">
<title>q1p2&#45;&gt;q2p2</title>
<path fill="none" stroke="black" d="M209.59,-91.25C219.81,-91.25 231.27,-91.25 242.1,-91.25"/>
<polygon fill="black" stroke="black" points="242.24,-94.75 252.24,-91.25 242.24,-87.75 242.24,-94.75"/>
<text text-anchor="middle" x="231.09" y="-95.05" font-family="Times New Roman,serif" font-size="14.00">a</text>
</g>
<!-- q1p2&#45;&gt;q1p1 -->
<g id="edge11" class="edge">
<title>q1p2&#45;&gt;q1p1</title>
<path fill="none" stroke="black" d="M152.58,-67.83C144.59,-61.15 135.09,-54.74 125.09,-51.25 120.05,-49.49 114.58,-48.6 109.13,-48.29"/>
<polygon fill="black" stroke="black" points="108.74,-44.79 98.76,-48.33 108.77,-51.79 108.74,-44.79"/>
<text text-anchor="middle" x="121.09" y="-55.05" font-family="Times New Roman,serif" font-size="14.00">b</text>
</g>
<!-- q3p2 -->
<g id="node6" class="node">
<title>q3p2</title>
<ellipse fill="none" stroke="black" cx="396.33" cy="-132.25" rx="29.47" ry="29.47"/>
<ellipse fill="none" stroke="black" cx="396.33" cy="-132.25" rx="33.5" ry="33.5"/>
<text text-anchor="middle" x="396.33" y="-128.55" font-family="Times New Roman,serif" font-size="14.00">q3p2</text>
</g>
<!-- q2p2&#45;&gt;q3p2 -->
<g id="edge5" class="edge">
<title>q2p2&#45;&gt;q3p2</title>
<path fill="none" stroke="black" d="M317.35,-102.78C329.23,-107.27 343.02,-112.48 355.66,-117.25"/>
<polygon fill="black" stroke="black" points="354.46,-120.54 365.05,-120.8 356.93,-113.99 354.46,-120.54"/>
<text text-anchor="middle" x="341.08" y="-116.05" font-family="Times New Roman,serif" font-size="14.00">a</text>
</g>
<!-- q2p1 -->
<g id="node8" class="node">
<title>q2p1</title>
<ellipse fill="none" stroke="black" cx="396.33" cy="-52.25" rx="29.5" ry="29.5"/>
<text text-anchor="middle" x="396.33" y="-48.55" font-family="Times New Roman,serif" font-size="14.00">q2p1</text>
</g>
<!-- q2p2&#45;&gt;q2p1 -->
<g id="edge13" class="edge">
<title>q2p2&#45;&gt;q2p1</title>
<path fill="none" stroke="black" d="M317.35,-80.28C330.26,-75.64 345.4,-70.19 358.9,-65.34"/>
<polygon fill="black" stroke="black" points="360.15,-68.61 368.37,-61.94 357.78,-62.03 360.15,-68.61"/>
<text text-anchor="middle" x="341.08" y="-76.05" font-family="Times New Roman,serif" font-size="14.00">b</text>
</g>
<!-- q3p2&#45;&gt;q4p2 -->
<g id="edge7" class="edge">
<title>q3p2&#45;&gt;q4p2</title>
<path fill="none" stroke="black" d="M427.84,-143.5C439.51,-147.8 453.01,-152.78 465.46,-157.37"/>
<polygon fill="black" stroke="black" points="464.58,-160.77 475.17,-160.94 467,-154.2 464.58,-160.77"/>
<text text-anchor="middle" x="451.58" y="-157.05" font-family="Times New Roman,serif" font-size="14.00">a</text>
</g>
<!-- q3p1 -->
<g id="node9" class="node">
<title>q3p1</title>
<ellipse fill="none" stroke="black" cx="506.83" cy="-92.25" rx="29.5" ry="29.5"/>
<text text-anchor="middle" x="506.83" y="-88.55" font-family="Times New Roman,serif" font-size="14.00">q3p1</text>
</g>
<!-- q3p2&#45;&gt;q3p1 -->
<g id="edge15" class="edge">
<title>q3p2&#45;&gt;q3p1</title>
<path fill="none" stroke="black" d="M427.84,-121C440.85,-116.2 456.14,-110.57 469.71,-105.56"/>
<polygon fill="black" stroke="black" points="471.06,-108.8 479.23,-102.05 468.64,-102.23 471.06,-108.8"/>
<text text-anchor="middle" x="451.58" y="-117.05" font-family="Times New Roman,serif" font-size="14.00">b</text>
</g>
<!-- q1p1&#45;&gt;q1p2 -->
<g id="edge10" class="edge">
<title>q1p1&#45;&gt;q1p2</title>
<path fill="none" stroke="black" d="M97.49,-62.93C108.95,-67.11 122.61,-72.07 135.26,-76.67"/>
<polygon fill="black" stroke="black" points="134.09,-79.97 144.68,-80.1 136.48,-73.39 134.09,-79.97"/>
<text text-anchor="middle" x="121.09" y="-76.05" font-family="Times New Roman,serif" font-size="14.00">b</text>
</g>
<!-- q1p1&#45;&gt;q2p1 -->
<g id="edge2" class="edge">
<title>q1p1&#45;&gt;q2p1</title>
<path fill="none" stroke="black" d="M98.63,-47.65C104.69,-46.65 111.09,-45.76 117.09,-45.25 120.64,-44.94 121.54,-45.23 125.09,-45.25 222.87,-45.69 247.45,-41.96 345.08,-47.25 349.01,-47.46 353.1,-47.75 357.18,-48.09"/>
<polygon fill="black" stroke="black" points="356.92,-51.58 367.2,-49 357.55,-44.61 356.92,-51.58"/>
<text text-anchor="middle" x="231.09" y="-48.05" font-family="Times New Roman,serif" font-size="14.00">a</text>
</g>
<!-- q2p1&#45;&gt;q2p2 -->
<g id="edge12" class="edge">
<title>q2p1&#45;&gt;q2p2</title>
<path fill="none" stroke="black" d="M367.16,-49.87C357.4,-49.91 346.55,-50.96 337.08,-54.25 330.97,-56.37 324.98,-59.52 319.38,-63.09"/>
<polygon fill="black" stroke="black" points="317.14,-60.39 310.95,-68.98 321.15,-66.13 317.14,-60.39"/>
<text text-anchor="middle" x="341.08" y="-58.05" font-family="Times New Roman,serif" font-size="14.00">b</text>
</g>
<!-- q2p1&#45;&gt;q3p1 -->
<g id="edge4" class="edge">
<title>q2p1&#45;&gt;q3p1</title>
<path fill="none" stroke="black" d="M425.82,-51.1C435.5,-51.51 446.23,-52.89 455.58,-56.25 462.66,-58.79 469.63,-62.65 476.02,-66.9"/>
<polygon fill="black" stroke="black" points="474.17,-69.87 484.34,-72.86 478.25,-64.19 474.17,-69.87"/>
<text text-anchor="middle" x="451.58" y="-60.05" font-family="Times New Roman,serif" font-size="14.00">a</text>
</g>
<!-- q3p1&#45;&gt;q4p1 -->
<g id="edge6" class="edge">
<title>q3p1&#45;&gt;q4p1</title>
<path fill="none" stroke="black" d="M534.61,-101.59C544.53,-105.13 555.86,-109.27 566.07,-113.25 569.58,-114.61 573.22,-116.06 576.86,-117.54"/>
<polygon fill="black" stroke="black" points="575.82,-120.89 586.4,-121.45 578.48,-114.42 575.82,-120.89"/>
<text text-anchor="middle" x="562.07" y="-117.05" font-family="Times New Roman,serif" font-size="14.00">a</text>
</g>
<!-- q3p1&#45;&gt;q3p2 -->
<g id="edge14" class="edge">
<title>q3p1&#45;&gt;q3p2</title>
<path fill="none" stroke="black" d="M477.63,-89.8C467.87,-89.84 457.02,-90.9 447.58,-94.25 441.14,-96.53 434.85,-99.97 429.02,-103.85"/>
<polygon fill="black" stroke="black" points="426.88,-101.08 420.84,-109.78 430.99,-106.74 426.88,-101.08"/>
<text text-anchor="middle" x="451.58" y="-98.05" font-family="Times New Roman,serif" font-size="14.00">b</text>
</g>
</g>
</svg>
